<svg xmlns="http://www.w3.org/2000/svg" width="100" height="100"><g><polygon id="svg_1" fill="#010201" fill-rule="evenodd" points="50.754 22 59.458 39.634 78.918 42.462 64.836 56.188 68.161 75.571 50.754 66.42 33.348 75.571 36.673 56.188 22.591 42.462 42.052 39.634" clip-rule="evenodd"/><path id="svg_2" fill="#D91E39" d="m85.35901,14.63901c-9.44101,-9.439 -21.99799,-14.63899 -35.35501,-14.63899l-0.06097,0c-13.34402,0 -25.88702,5.2 -35.32401,14.642c-9.436,9.442 -14.62802,21.99098 -14.61902,35.326c-0.009,13.36301 5.186,25.927 14.629,35.38c9.44,9.44897 21.991,14.65198 35.34201,14.65198l0.00299,0c13.36502,0 25.93002,-5.202 35.37701,-14.64999c9.44397,-9.44699 14.64697,-22.01001 14.64801,-35.37601c0,-13.349 -5.198,-25.896 -14.64001,-35.33499zm-35.35501,-3.48901c21.42001,0 38.84799,17.416 38.84799,38.82199c0,8.47101 -2.72601,16.31601 -7.34497,22.711l-54.20001,-54.24899c6.55298,-4.731 14.397,-7.286 22.63699,-7.286l0.06,0.002l0,0zm-27.487,66.31702c-7.33701,-7.34299 -11.37299,-17.10501 -11.36499,-27.49899c-0.008,-8.50702 2.71298,-16.603 7.74399,-23.287l54.36099,54.407c-6.495,4.87201 -14.55798,7.76401 -23.28299,7.76401c-10.37299,-0.00003 -20.12299,-4.04303 -27.457,-11.38501z"/></g></svg>